<?xml version="1.0" standalone="no"?>
<!DOCTYPE svg PUBLIC "-//W3C//DTD SVG 20010904//EN"
 "http://www.w3.org/TR/2001/REC-SVG-20010904/DTD/svg10.dtd">
<svg version="1.0" xmlns="http://www.w3.org/2000/svg"
 width="32.000000pt" height="32.000000pt" viewBox="0 0 32.000000 32.000000"
 preserveAspectRatio="xMidYMid meet">
<metadata>
Created by potrace 1.10, written by Peter Selinger 2001-2011
</metadata>
<g transform="translate(0.000000,32.000000) scale(0.100000,-0.100000)"
fill="#000000" stroke="none">
<path d="M105 230 l-49 -50 104 0 104 0 -49 50 c-27 28 -52 50 -55 50 -3 0
-28 -22 -55 -50z m85 -5 l23 -25 -53 0 -53 0 23 25 c13 14 26 25 30 25 4 0 17
-11 30 -25z"/>
<path d="M108 88 l52 -53 52 53 53 52 -105 0 -105 0 53 -52z m79 5 l-27 -28
-27 28 -28 27 55 0 55 0 -28 -27z"/>
</g>
</svg>
